#tb 0: 1/1000
0,          0,          0,        0,   115200, 0x03fbd838
0,        200,        200,        0,   115200, 0x8911d86f
0,        266,        266,        0,   115200, 0x7c5dd82e
0,        333,        333,        0,   115200, 0x7c5ed82e
0,       2000,       2000,        0,   115200, 0xd323d838
0,       2066,       2066,        0,   115200, 0x6e7479ab
0,       2133,       2133,        0,   115200, 0x14674bf6
0,       2200,       2200,        0,   115200, 0x074c2e3d
0,       2266,       2266,        0,   115200, 0x9b3025ef
0,       2333,       2333,        0,   115200, 0x76882dae
0,       2400,       2400,        0,   115200, 0xedf3421b
0,       2466,       2466,        0,   115200, 0xb5378486
0,       2533,       2533,        0,   115200, 0xc4a53420
0,       2600,       2600,        0,   115200, 0x559cb60f
0,       2666,       2666,        0,   115200, 0xcc034ddd
0,       2733,       2733,        0,   115200, 0xb77b7779
0,       2800,       2800,        0,   115200, 0x0ad9c3e6
0,       2866,       2866,        0,   115200, 0x4e673027
0,       2933,       2933,        0,   115200, 0x54717979
0,       3000,       3000,        0,   115200, 0xf9e557c9
0,       3066,       3066,        0,   115200, 0xbdcf6358
0,       3133,       3133,        0,   115200, 0xd55c7bb7
0,       3200,       3200,        0,   115200, 0x78d171e7
0,       3266,       3266,        0,   115200, 0x28715816
0,       3333,       3333,        0,   115200, 0x58740b8a
0,       3400,       3400,        0,   115200, 0x86c10f18
0,       3466,       3466,        0,   115200, 0x903918f9
0,       3533,       3533,        0,   115200, 0x7f742394
0,       3600,       3600,        0,   115200, 0xd3a91d44
0,       3666,       3666,        0,   115200, 0x24452563
0,       3733,       3733,        0,   115200, 0x1b0c320e
0,       3800,       3800,        0,   115200, 0x3a493c8e
0,       3866,       3866,        0,   115200, 0xebe445ec
0,       3933,       3933,        0,   115200, 0xd2c54c8c
0,       4000,       4000,        0,   115200, 0x4aa15593
0,       4066,       4066,        0,   115200, 0x19a35cc1
0,       4133,       4133,        0,   115200, 0x968c6ee7
0,       4200,       4200,        0,   115200, 0x9f7c7808
0,       4266,       4266,        0,   115200, 0xa23980ee
0,       4333,       4333,        0,   115200, 0xcf3089c3
0,       4400,       4400,        0,   115200, 0x43f78d5c
0,       4466,       4466,        0,   115200, 0x43caa1d4
0,       4533,       4533,        0,   115200, 0x025594c3
0,       4600,       4600,        0,   115200, 0x5ec8a11c
0,       4666,       4666,        0,   115200, 0x7f2a959b
0,       4733,       4733,        0,   115200, 0xc602852d
0,       4800,       4800,        0,   115200, 0x67737ef5
0,       4866,       4866,        0,   115200, 0x81e06efe
0,       4933,       4933,        0,   115200, 0xdb0a484f
0,       5000,       5000,        0,   115200, 0xf30e4418
0,       5066,       5066,        0,   115200, 0xbdd1310d
0,       5133,       5133,        0,   115200, 0x0d2a58ca
0,       5200,       5200,        0,   115200, 0xa428b4ba
0,       5266,       5266,        0,   115200, 0x4b850596
0,       5333,       5333,        0,   115200, 0x38d3ecc0
0,       5400,       5400,        0,   115200, 0x6bb0ed23
0,       5466,       5466,        0,   115200, 0xb56eedaf
0,       5533,       5533,        0,   115200, 0xde81f828
0,       5600,       5600,        0,   115200, 0x334abf89
0,       5666,       5666,        0,   115200, 0x8e8ebd78
0,       5733,       5733,        0,   115200, 0x96ba99c8
0,       5800,       5800,        0,   115200, 0x2c8e0abd
0,       5866,       5866,        0,   115200, 0xe1ab8f9f
0,       5933,       5933,        0,   115200, 0xb2f95da4
0,       6000,       6000,        0,   115200, 0x2e536d62
0,       6066,       6066,        0,   115200, 0xdd78f3ab
0,       6133,       6133,        0,   115200, 0xea1cdaaa
0,       6200,       6200,        0,   115200, 0x4e653cc0
0,       6266,       6266,        0,   115200, 0x95e38123
0,       6333,       6333,        0,   115200, 0x20964119
0,       6400,       6400,        0,   115200, 0xcd08ea74
0,       6466,       6466,        0,   115200, 0x0eee2a96
0,       6533,       6533,        0,   115200, 0x966662c9
0,       6600,       6600,        0,   115200, 0x975893b4
0,       6666,       6666,        0,   115200, 0x0aa888a7
0,       6733,       6733,        0,   115200, 0x80dab966
0,       6800,       6800,        0,   115200, 0x78bb8f95
0,       6866,       6866,        0,   115200, 0x9c71d03f
0,       6933,       6933,        0,   115200, 0xbe5db887
0,       7000,       7000,        0,   115200, 0xa88e00d0
0,       7066,       7066,        0,   115200, 0xc7b50827
0,       7133,       7133,        0,   115200, 0xf9155ed3
0,       7200,       7200,        0,   115200, 0x8dd72d44
0,       7266,       7266,        0,   115200, 0xee38183a
0,       7333,       7333,        0,   115200, 0xea2b6329
0,       7400,       7400,        0,   115200, 0xf556c2b3
0,       7466,       7466,        0,   115200, 0x90edebf9
0,       7533,       7533,        0,   115200, 0x4f440fdf
0,       7600,       7600,        0,   115200, 0xfdec7a9d
0,       7666,       7666,        0,   115200, 0xc7927952
0,       7733,       7733,        0,   115200, 0xdd475704
0,       7800,       7800,        0,   115200, 0x974a61a5
0,       7866,       7866,        0,   115200, 0xbf2b785e
0,       7933,       7933,        0,   115200, 0x5de451fa
0,       8000,       8000,        0,   115200, 0x3fac503e
0,       8066,       8066,        0,   115200, 0xc6785643
0,       8133,       8133,        0,   115200, 0xe6666254
0,       8200,       8200,        0,   115200, 0x1a05130c
0,       8266,       8266,        0,   115200, 0x082cea5d
0,       8333,       8333,        0,   115200, 0x473ef142
0,       8400,       8400,        0,   115200, 0x9769a776
0,       8466,       8466,        0,   115200, 0xe6e841af
0,       8533,       8533,        0,   115200, 0xa44c8d1e
0,       8600,       8600,        0,   115200, 0xd03d641b
0,       8666,       8666,        0,   115200, 0x3aea3c9e
0,       8733,       8733,        0,   115200, 0x09efcf21
0,       8800,       8800,        0,   115200, 0xeeb6ff64
0,       8866,       8866,        0,   115200, 0xa310af6f
0,       8933,       8933,        0,   115200, 0x2488519e
0,       9000,       9000,        0,   115200, 0x48e1febf
0,       9066,       9066,        0,   115200, 0x76d00513
0,       9133,       9133,        0,   115200, 0xa28eda81
0,       9200,       9200,        0,   115200, 0xc2cbdcae
0,       9266,       9266,        0,   115200, 0xd976c9b2
0,       9333,       9333,        0,   115200, 0xb0abebab
0,       9400,       9400,        0,   115200, 0x32be4765
0,       9466,       9466,        0,   115200, 0xc0a36b11
0,       9533,       9533,        0,   115200, 0xb6d1d47f
0,       9600,       9600,        0,   115200, 0xab7954a6
0,       9666,       9666,        0,   115200, 0xc485789c
0,       9733,       9733,        0,   115200, 0xa07101b6
0,       9800,       9800,        0,   115200, 0x6297780a
0,       9866,       9866,        0,   115200, 0xf550ba94
0,       9933,       9933,        0,   115200, 0x9b77f994
0,      10000,      10000,        0,   115200, 0xb0e870ad
0,      10066,      10066,        0,   115200, 0x2dd89b0b
0,      10133,      10133,        0,   115200, 0x36dcfe2f
0,      10200,      10200,        0,   115200, 0x3e5e1a8f
0,      10266,      10266,        0,   115200, 0xb8394740
0,      10333,      10333,        0,   115200, 0xbfc852fc
0,      10400,      10400,        0,   115200, 0x5b3f8aa2
0,      10466,      10466,        0,   115200, 0xc29d8e3a
0,      10533,      10533,        0,   115200, 0x7300abd8
0,      10600,      10600,        0,   115200, 0xd1dd7a3b
0,      10666,      10666,        0,   115200, 0xe5978f39
0,      10733,      10733,        0,   115200, 0x235c6b8d
0,      10800,      10800,        0,   115200, 0xec1b5805
0,      10866,      10866,        0,   115200, 0x16d23946
0,      10933,      10933,        0,   115200, 0xa8de1cf4
0,      11000,      11000,        0,   115200, 0x5e730512
0,      11066,      11066,        0,   115200, 0x1250feed
0,      11133,      11133,        0,   115200, 0x0928c190
0,      11200,      11200,        0,   115200, 0xa25d9e5c
0,      11266,      11266,        0,   115200, 0x921068ea
0,      11333,      11333,        0,   115200, 0x2c974ddb
0,      11400,      11400,        0,   115200, 0x35ae4d75
0,      11466,      11466,        0,   115200, 0xec0c6469
0,      11533,      11533,        0,   115200, 0x22704fad
0,      11600,      11600,        0,   115200, 0x0a9a5aed
0,      11666,      11666,        0,   115200, 0x45192f2f
0,      11733,      11733,        0,   115200, 0xc07b39f4
0,      11800,      11800,        0,   115200, 0x32c60215
0,      11866,      11866,        0,   115200, 0xda65035e
0,      11933,      11933,        0,   115200, 0x99d0cd81
0,      12000,      12000,        0,   115200, 0xd08ca5e3
0,      12066,      12066,        0,   115200, 0x82cdad17
0,      12133,      12133,        0,   115200, 0x2587a420
0,      12200,      12200,        0,   115200, 0x85cba73d
0,      12266,      12266,        0,   115200, 0x4677bf89
0,      12333,      12333,        0,   115200, 0x84c2e034
0,      12400,      12400,        0,   115200, 0xd343066c
0,      12466,      12466,        0,   115200, 0xdec716a1
0,      12533,      12533,        0,   115200, 0x93c04f5d
0,      12600,      12600,        0,   115200, 0xce126ac4
0,      12666,      12666,        0,   115200, 0xa20098c5
0,      12733,      12733,        0,   115200, 0x9a4ca711
0,      12800,      12800,        0,   115200, 0xfae9c154
0,      12866,      12866,        0,   115200, 0xb34cc431
0,      12933,      12933,        0,   115200, 0x923cdec2
0,      13000,      13000,        0,   115200, 0x60ffdfe8
0,      13066,      13066,        0,   115200, 0xa3e6f9f2
0,      13133,      13133,        0,   115200, 0x374f0a47
0,      13200,      13200,        0,   115200, 0x8fb228f1
0,      13266,      13266,        0,   115200, 0x4c1a24bf
0,      13333,      13333,        0,   115200, 0x768a52d1
0,      13400,      13400,        0,   115200, 0x5bf77025
0,      13466,      13466,        0,   115200, 0x6ca67c2a
0,      13533,      13533,        0,   115200, 0x107ca3e9
0,      13600,      13600,        0,   115200, 0x4abeda93
0,      13666,      13666,        0,   115200, 0x750be9ff
0,      13733,      13733,        0,   115200, 0x28c5eee3
0,      13800,      13800,        0,   115200, 0xa1b0e4b2
0,      13866,      13866,        0,   115200, 0x2ae7f33d
0,      13933,      13933,        0,   115200, 0xf29cdae0
0,      14000,      14000,        0,   115200, 0xd470f9ed
0,      14066,      14066,        0,   115200, 0x2d22f832
0,      14133,      14133,        0,   115200, 0xc5b91780
0,      14200,      14200,        0,   115200, 0x3d8e4151
0,      14266,      14266,        0,   115200, 0x459f58e0
0,      14333,      14333,        0,   115200, 0x8dc198fe
0,      14400,      14400,        0,   115200, 0x2479f579
0,      14466,      14466,        0,   115200, 0xc2040c21
0,      14533,      14533,        0,   115200, 0x39ad60d5
0,      14600,      14600,        0,   115200, 0x9329dd37
0,      14666,      14666,        0,   115200, 0xa08807da
0,      14733,      14733,        0,   115200, 0xbf514cd1
0,      14800,      14800,        0,   115200, 0x8b66a779
0,      14866,      14866,        0,   115200, 0x865ebff5
0,      14933,      14933,        0,   115200, 0x5967074c
0,      15000,      15000,        0,   115200, 0xd5521f60
0,      15066,      15066,        0,   115200, 0x462c329c
0,      15133,      15133,        0,   115200, 0xbefd36fb
0,      15200,      15200,        0,   115200, 0x6f58403b
0,      15266,      15266,        0,   115200, 0xe4af2fac
0,      15333,      15333,        0,   115200, 0x46453662
0,      15400,      15400,        0,   115200, 0x72cc59e8
0,      15466,      15466,        0,   115200, 0xd6c67f8e
0,      15533,      15533,        0,   115200, 0xd35674a7
0,      15600,      15600,        0,   115200, 0x65785ddb
0,      15666,      15666,        0,   115200, 0xfd7958aa
0,      15733,      15733,        0,   115200, 0x93e45607
0,      15800,      15800,        0,   115200, 0x196a4fa5
0,      15866,      15866,        0,   115200, 0xe33a5dac
0,      15933,      15933,        0,   115200, 0x4e66904a
0,      16000,      16000,        0,   115200, 0xc1e3a50a
0,      16066,      16066,        0,   115200, 0xa685b351
0,      16133,      16133,        0,   115200, 0xee2fdeb7
0,      16200,      16200,        0,   115200, 0x189cefdd
0,      16266,      16266,        0,   115200, 0xbdf90506
0,      16333,      16333,        0,   115200, 0xe72c23d2
0,      16400,      16400,        0,   115200, 0xa3f65e7b
0,      16466,      16466,        0,   115200, 0x8bc67eee
0,      16533,      16533,        0,   115200, 0xd305d09b
0,      16600,      16600,        0,   115200, 0xc521eba5
0,      16666,      16666,        0,   115200, 0x16cf161f
0,      16733,      16733,        0,   115200, 0x2ce322b5
0,      16800,      16800,        0,   115200, 0x57ce82b4
0,      16866,      16866,        0,   115200, 0x8da896b9
0,      16933,      16933,        0,   115200, 0xc16ad590
0,      17000,      17000,        0,   115200, 0x8cdbe729
0,      17066,      17066,        0,   115200, 0x69eafd96
0,      17133,      17133,        0,   115200, 0xd9e40a03
0,      17200,      17200,        0,   115200, 0xb91423e1
0,      17266,      17266,        0,   115200, 0x09b516bd
0,      17333,      17333,        0,   115200, 0x20292b85
0,      17400,      17400,        0,   115200, 0x8cbb4aeb
0,      17466,      17466,        0,   115200, 0x99b761ec
0,      17533,      17533,        0,   115200, 0x28406a14
0,      17600,      17600,        0,   115200, 0xea368c86
0,      17666,      17666,        0,   115200, 0xf388ab54
0,      17733,      17733,        0,   115200, 0x263fe1de
0,      17800,      17800,        0,   115200, 0xc3410c39
0,      17866,      17866,        0,   115200, 0xc056244d
0,      17933,      17933,        0,   115200, 0x99c51fc5
0,      18000,      18000,        0,   115200, 0x7e4a0d07
0,      18066,      18066,        0,   115200, 0xcd911916
0,      18133,      18133,        0,   115200, 0x8bd0fa21
0,      18200,      18200,        0,   115200, 0xd1a1ab71
0,      18266,      18266,        0,   115200, 0xbc904028
0,      18333,      18333,        0,   115200, 0xfd480acc
0,      18400,      18400,        0,   115200, 0x1cb5c8b5
0,      18466,      18466,        0,   115200, 0xcad15709
0,      18533,      18533,        0,   115200, 0xdd306f19
0,      18600,      18600,        0,   115200, 0x3f975f1b
0,      18666,      18666,        0,   115200, 0x2386cd1f
0,      18733,      18733,        0,   115200, 0xcaa4f5b0
0,      18800,      18800,        0,   115200, 0x8ce213de
0,      18866,      18866,        0,   115200, 0x5f7407c6
0,      18932,      18932,        0,   115200, 0x01b3ee00
0,      18998,      18998,        0,   115200, 0x92759715
0,      19064,      19064,        0,   115200, 0x4a208e1e
0,      19133,      19133,        0,   115200, 0x6e1b80a5
0,      19200,      19200,        0,   115200, 0xe78c7622
0,      19266,      19266,        0,   115200, 0xcc255da9
0,      19333,      19333,        0,   115200, 0x69e561cb
0,      19400,      19400,        0,   115200, 0x2d135227
0,      19466,      19466,        0,   115200, 0xfc6a5e4d
0,      19533,      19533,        0,   115200, 0x81473914
0,      19600,      19600,        0,   115200, 0xe50831b2
0,      19666,      19666,        0,   115200, 0xe7d2228f
0,      19733,      19733,        0,   115200, 0xe6992f1a
0,      19800,      19800,        0,   115200, 0x1e533698
0,      19866,      19866,        0,   115200, 0x0c63558c
0,      19933,      19933,        0,   115200, 0x54990104
0,      20000,      20000,        0,   115200, 0xce14fc4d
0,      20066,      20066,        0,   115200, 0x760b5c6e
0,      20133,      20133,        0,   115200, 0x14157b61
0,      20200,      20200,        0,   115200, 0x62ca7972
0,      20266,      20266,        0,   115200, 0xe99573ce
0,      20333,      20333,        0,   115200, 0x36df4b8d
0,      20400,      20400,        0,   115200, 0x272238ea
0,      20466,      20466,        0,   115200, 0x606e3863
0,      20533,      20533,        0,   115200, 0x8b143873
0,      20600,      20600,        0,   115200, 0x2e46db9e
0,      20666,      20666,        0,   115200, 0x1131ad78
0,      20733,      20733,        0,   115200, 0x52f34951
0,      20800,      20800,        0,   115200, 0xd4590eea
0,      20866,      20866,        0,   115200, 0x44ddeaa2
0,      20933,      20933,        0,   115200, 0xbc83c399
0,      21000,      21000,        0,   115200, 0x5e9da9a7
0,      21066,      21066,        0,   115200, 0xca6a8dfc
0,      21133,      21133,        0,   115200, 0xe17b3ff8
0,      21200,      21200,        0,   115200, 0xea1f375c
0,      21266,      21266,        0,   115200, 0xa265143b
0,      21333,      21333,        0,   115200, 0xe788fa1e
0,      21400,      21400,        0,   115200, 0xd58be649
0,      21466,      21466,        0,   115200, 0x740c1f19
0,      21533,      21533,        0,   115200, 0xfab3302f
0,      21600,      21600,        0,   115200, 0x1c954fc7
0,      21666,      21666,        0,   115200, 0xd57a5923
0,      21733,      21733,        0,   115200, 0x099745d9
0,      21800,      21800,        0,   115200, 0x2e61cc66
0,      21866,      21866,        0,   115200, 0xdb3ec93a
0,      21933,      21933,        0,   115200, 0x553ba839
0,      22000,      22000,        0,   115200, 0xfafc6b60
0,      22066,      22066,        0,   115200, 0xa3fb39b6
0,      22133,      22133,        0,   115200, 0x7fb9d7be
0,      22200,      22200,        0,   115200, 0x7e73cd93
0,      22266,      22266,        0,   115200, 0xa43ec5f2
0,      22333,      22333,        0,   115200, 0x3ec077c1
0,      22400,      22400,        0,   115200, 0xc4275815
0,      22466,      22466,        0,   115200, 0xf84c17bf
0,      22533,      22533,        0,   115200, 0x1f54d44d
0,      22600,      22600,        0,   115200, 0x566fa5bb
0,      22666,      22666,        0,   115200, 0x82179a82
0,      22733,      22733,        0,   115200, 0xf8865f3d
0,      22800,      22800,        0,   115200, 0xa5fb7b80
0,      22866,      22866,        0,   115200, 0x9aebc04d
0,      22933,      22933,        0,   115200, 0x44c705fc
0,      23000,      23000,        0,   115200, 0xd322add3
0,      23066,      23066,        0,   115200, 0xf4230b76
0,      23133,      23133,        0,   115200, 0xaa915069
0,      23200,      23200,        0,   115200, 0x518d53d8
0,      23266,      23266,        0,   115200, 0xefa7d909
0,      23333,      23333,        0,   115200, 0x803c3c0e
0,      23400,      23400,        0,   115200, 0x5650bc0a
0,      23466,      23466,        0,   115200, 0x8b34ecab
0,      23533,      23533,        0,   115200, 0x975c4976
0,      23600,      23600,        0,   115200, 0x700e3cb4
0,      23666,      23666,        0,   115200, 0xef27a4ec
0,      23733,      23733,        0,   115200, 0x2b953936
0,      23800,      23800,        0,   115200, 0xcf9b4956
0,      23866,      23866,        0,   115200, 0xae4a8eba
0,      23933,      23933,        0,   115200, 0xf8821144
0,      24000,      24000,        0,   115200, 0x97c2402c
0,      24066,      24066,        0,   115200, 0x209b7bb3
0,      24133,      24133,        0,   115200, 0xd22fff2c
0,      24200,      24200,        0,   115200, 0xe85b4f16
0,      24266,      24266,        0,   115200, 0x0659f318
0,      24333,      24333,        0,   115200, 0x6e2bff98
0,      24400,      24400,        0,   115200, 0xc6626f2f
0,      24466,      24466,        0,   115200, 0x123138e2
0,      24533,      24533,        0,   115200, 0x69e680ab
0,      24600,      24600,        0,   115200, 0xe4d7cd1d
0,      24666,      24666,        0,   115200, 0x4ca10d47
0,      24733,      24733,        0,   115200, 0x633a4c39
0,      24800,      24800,        0,   115200, 0x64ded292
0,      24866,      24866,        0,   115200, 0x88d2df42
0,      24933,      24933,        0,   115200, 0x998f4c63
0,      25000,      25000,        0,   115200, 0x753c76f9
0,      25066,      25066,        0,   115200, 0x9d7ba0a6
0,      25133,      25133,        0,   115200, 0x68798da5
0,      25200,      25200,        0,   115200, 0xb5b18bc3
0,      25266,      25266,        0,   115200, 0x20245e49
0,      25333,      25333,        0,   115200, 0xf15d4b8f
0,      25400,      25400,        0,   115200, 0x17f83b69
0,      25466,      25466,        0,   115200, 0xcc545783
0,      25533,      25533,        0,   115200, 0x3dad530e
0,      25600,      25600,        0,   115200, 0x6b465c94
0,      25666,      25666,        0,   115200, 0xbc5f3831
0,      25733,      25733,        0,   115200, 0x1b2f042d
0,      25800,      25800,        0,   115200, 0xaec391ac
0,      25866,      25866,        0,   115200, 0x99fa8b2a
0,      25933,      25933,        0,   115200, 0xf78d3524
0,      26000,      26000,        0,   115200, 0xe6255a24
0,      26066,      26066,        0,   115200, 0x253542c6
0,      26133,      26133,        0,   115200, 0xfab05365
0,      26200,      26200,        0,   115200, 0x406a3749
0,      26266,      26266,        0,   115200, 0xaf0f3935
0,      26333,      26333,        0,   115200, 0x0d9ff780
0,      26400,      26400,        0,   115200, 0xfadcfc15
0,      26466,      26466,        0,   115200, 0x8267d5ad
0,      26533,      26533,        0,   115200, 0xd705d250
0,      26600,      26600,        0,   115200, 0x18f9d1f2
0,      26666,      26666,        0,   115200, 0xd92bc045
0,      26733,      26733,        0,   115200, 0x439b9ca0
0,      26800,      26800,        0,   115200, 0xcb80a14c
0,      26866,      26866,        0,   115200, 0xee887f49
0,      26933,      26933,        0,   115200, 0xfba297eb
0,      27000,      27000,        0,   115200, 0x0e2f744b
0,      27066,      27066,        0,   115200, 0xaa227aa7
0,      27133,      27133,        0,   115200, 0xd7bc6fff
0,      27200,      27200,        0,   115200, 0x295c91cf
0,      27266,      27266,        0,   115200, 0xc5678733
0,      27333,      27333,        0,   115200, 0xc8d49120
0,      27400,      27400,        0,   115200, 0xb14e90b9
0,      27466,      27466,        0,   115200, 0x6a09acab
0,      27533,      27533,        0,   115200, 0xb9aec358
0,      27600,      27600,        0,   115200, 0xeb3695b2
0,      27666,      27666,        0,   115200, 0xc5bebd62
0,      27733,      27733,        0,   115200, 0x2d6b1a3f
0,      27800,      27800,        0,   115200, 0x92986f49
0,      27866,      27866,        0,   115200, 0x00c37cf9
0,      27933,      27933,        0,   115200, 0x5a4d87a6
0,      28000,      28000,        0,   115200, 0xe87888a2
0,      28066,      28066,        0,   115200, 0x4ab18d6d
0,      28133,      28133,        0,   115200, 0xcb84880b
0,      28200,      28200,        0,   115200, 0x82458848
0,      28266,      28266,        0,   115200, 0x11b477dc
0,      28333,      28333,        0,   115200, 0x56d876d3
0,      28400,      28400,        0,   115200, 0xf5297ceb
0,      28466,      28466,        0,   115200, 0x47357713
0,      28533,      28533,        0,   115200, 0xede562df
0,      28600,      28600,        0,   115200, 0xabf42d38
0,      28666,      28666,        0,   115200, 0xea9225c8
0,      28733,      28733,        0,   115200, 0x79ce1cb4
0,      28800,      28800,        0,   115200, 0x0cd418b4
0,      28866,      28866,        0,   115200, 0x6f7c118e
0,      28933,      28933,        0,   115200, 0xbbbc0fa4
0,      29000,      29000,        0,   115200, 0x890514e6
0,      29066,      29066,        0,   115200, 0x9c4d0e7d
0,      29133,      29133,        0,   115200, 0x56260e76
0,      29200,      29200,        0,   115200, 0x7dc80258
0,      29266,      29266,        0,   115200, 0xa990f5a3
0,      29333,      29333,        0,   115200, 0x2174e913
0,      29400,      29400,        0,   115200, 0x8296e674
0,      29466,      29466,        0,   115200, 0x9e28e3b4
0,      29533,      29533,        0,   115200, 0x404ce72b
0,      29600,      29600,        0,   115200, 0xc7cbf4ec
0,      29666,      29666,        0,   115200, 0x5ce0f5a1
0,      29733,      29733,        0,   115200, 0x88dbf7c7
0,      29800,      29800,        0,   115200, 0x26daf35a
0,      29866,      29866,        0,   115200, 0x5cfdfe63
0,      29933,      29933,        0,   115200, 0xdd40fb9b
0,      30000,      30000,        0,   115200, 0x5b8df20f
0,      30066,      30066,        0,   115200, 0x4f2ce5ac
0,      30133,      30133,        0,   115200, 0xc9d0e0c2
0,      30200,      30200,        0,   115200, 0x51c7e2a6
0,      30266,      30266,        0,   115200, 0xb3bae109
0,      30333,      30333,        0,   115200, 0xbd85e5b2
0,      30400,      30400,        0,   115200, 0x1fbbdfd1
0,      30466,      30466,        0,   115200, 0x3665dfd0
0,      30533,      30533,        0,   115200, 0xcd29d50c
0,      30600,      30600,        0,   115200, 0xedd1c6bc
0,      30666,      30666,        0,   115200, 0xebc2d072
0,      30733,      30733,        0,   115200, 0xe2e5fbbd
0,      30800,      30800,        0,   115200, 0x616a13dc
0,      30866,      30866,        0,   115200, 0xf64f1efc
0,      30933,      30933,        0,   115200, 0x5356235f
0,      31000,      31000,        0,   115200, 0xafc032d5
0,      31066,      31066,        0,   115200, 0xaa034420
0,      31133,      31133,        0,   115200, 0x007e0afa
0,      31200,      31200,        0,   115200, 0x077ad5c8
0,      31266,      31266,        0,   115200, 0x8fc815b8
0,      31333,      31333,        0,   115200, 0x95b85990
0,      31400,      31400,        0,   115200, 0x46f5899f
0,      31466,      31466,        0,   115200, 0x1e37cd82
0,      31533,      31533,        0,   115200, 0x3ce90bfd
0,      31600,      31600,        0,   115200, 0xbb95bd1d
0,      31666,      31666,        0,   115200, 0xd4aa9ba8
0,      31733,      31733,        0,   115200, 0x0e761649
0,      31800,      31800,        0,   115200, 0x49ad7886
0,      31866,      31866,        0,   115200, 0x2f4184df
0,      31933,      31933,        0,   115200, 0x80b906ee
0,      32000,      32000,        0,   115200, 0x62405100
0,      32066,      32066,        0,   115200, 0x3ece13b5
0,      32133,      32133,        0,   115200, 0x3abd4cfc
0,      32200,      32200,        0,   115200, 0x91b418e3
0,      32266,      32266,        0,   115200, 0xde1ce68e
0,      32333,      32333,        0,   115200, 0xfc47f912
0,      32400,      32400,        0,   115200, 0x5b380a6f
0,      32466,      32466,        0,   115200, 0x8f35c3c0
0,      32533,      32533,        0,   115200, 0xb26dc220
0,      32599,      32599,        0,   115200, 0x3d5bbfce
0,      32665,      32665,        0,   115200, 0xa1f9bee6
0,      32731,      32731,        0,   115200, 0xa87dcd24
0,      32797,      32797,        0,   115200, 0x9374cb71
0,      32863,      32863,        0,   115200, 0x0c7ccbd0
0,      32929,      32929,        0,   115200, 0x9a16cc49
0,      32995,      32995,        0,   115200, 0x4df0c28b
0,      33061,      33061,        0,   115200, 0xb5b8b866
0,      33133,      33133,        0,   115200, 0xafcc1019
0,      34000,      34000,        0,   115200, 0x623b0ff3
0,      34133,      34133,        0,   115200, 0x1d6f10b5
